<?xml version="1.0" encoding="UTF-8"?>
<svg version="1.1" viewBox="0 0 14 14" xmlns="http://www.w3.org/2000/svg">
	<path d="m7.0438.083984c-2.4685 5.244e-5-4.4694.50027-4.4688 1.1172.00366.61616 2.0033 1.1152 4.4688 1.1152 2.4663.0002176 4.467-.49889 4.4707-1.1152.000656-.61711-2.0014-1.1174-4.4707-1.1172zm-4.5723 1.498c-.1078.41805-.35284 1.519-.51953 2.918 3.0952 1.2274 7.081 1.3739 10.186-.0019531-.16581-1.4058-.41055-2.4989-.51953-2.916-.67688.7656-3.1979.97918-4.5742.98438-1.6642-.020476-3.9841-.26063-4.5723-.98438zm-.62109 4.0137c-.1157 1.162-.040884 2.3268.044922 3.4258 2.9598 1.7136 7.6233 1.5222 10.297 0 .14108-1.2049.11142-2.2982.04492-3.4258-3.3268 1.2539-7.1345 1.3289-10.387 0zm.24805 4.7754c.22374 1.2536.48311 2.0978.48828 2.1133 5.11e-5.000152.00195.0098.00195.0098h.00195c.18077.83962 2.1202 1.4878 4.4531 1.4883 2.3329-.000484 4.2724-.64866 4.4531-1.4883h.0039s.26365-.8481.49023-2.123c-2.7482 1.385-7.0291 1.5116-9.8926 0z"/>
</svg>